<svg width="390" height="298" viewBox="0 0 390 298" fill="none" xmlns="http://www.w3.org/2000/svg">
<g clip-path="url(#clip0)">
<path d="M156.058 61.7983H154.636V22.6551C154.636 19.68 154.052 16.734 152.919 13.9854C151.785 11.2367 150.123 8.73925 148.029 6.63553C145.934 4.53181 143.447 2.86305 140.71 1.72452C137.973 0.585997 135.04 2.52074e-06 132.078 0H49.5027C43.52 -1.14542e-05 37.7823 2.38684 33.5518 6.63548C29.3214 10.8841 26.9447 16.6465 26.9447 22.655V237.398C26.9447 240.373 27.5282 243.319 28.6618 246.068C29.7955 248.816 31.4571 251.314 33.5518 253.418C35.6465 255.521 38.1332 257.19 40.8701 258.329C43.607 259.467 46.5403 260.053 49.5027 260.053H132.078C138.06 260.053 143.798 257.666 148.029 253.418C152.259 249.169 154.636 243.407 154.636 237.398V89.6612H156.058V61.7983Z" fill="#3F3D56"/>
<path d="M132.988 5.89404H122.209C122.705 7.11454 122.894 8.43873 122.76 9.74997C122.626 11.0612 122.173 12.3192 121.441 13.4133C120.709 14.5073 119.72 15.4037 118.562 16.0235C117.404 16.6434 116.111 16.9676 114.799 16.9677H67.4928C66.1803 16.9676 64.888 16.6434 63.7297 16.0235C62.5714 15.4037 61.5827 14.5073 60.8506 13.4133C60.1185 12.3193 59.6656 11.0612 59.5316 9.74998C59.3977 8.43874 59.5869 7.11454 60.0826 5.89404H50.0152C47.803 5.89404 45.6124 6.33165 43.5685 7.18189C41.5247 8.03212 39.6676 9.27833 38.1033 10.8494C36.539 12.4204 35.2981 14.2855 34.4515 16.3381C33.6049 18.3908 33.1692 20.5908 33.1692 22.8126V237.241C33.1692 239.462 33.6049 241.662 34.4515 243.715C35.2981 245.768 36.5389 247.633 38.1032 249.204C39.6675 250.775 41.5246 252.021 43.5685 252.871C45.6124 253.721 47.8029 254.159 50.0152 254.159H132.988C135.2 254.159 137.391 253.721 139.435 252.871C141.478 252.021 143.336 250.775 144.9 249.204C146.464 247.633 147.705 245.768 148.552 243.715C149.398 241.662 149.834 239.462 149.834 237.241V22.8126C149.834 20.5908 149.398 18.3908 148.552 16.3381C147.705 14.2855 146.464 12.4204 144.9 10.8494C143.336 9.27833 141.478 8.03212 139.435 7.18189C137.391 6.33165 135.2 5.89404 132.988 5.89404Z" fill="white"/>
<path d="M182.525 260.09H0.477815C0.351091 260.09 0.229556 260.039 0.139948 259.95C0.0503407 259.86 0 259.737 0 259.61C0 259.483 0.0503407 259.361 0.139948 259.271C0.229556 259.181 0.351091 259.13 0.477815 259.13H182.525C182.652 259.13 182.774 259.181 182.863 259.271C182.953 259.361 183.003 259.483 183.003 259.61C183.003 259.737 182.953 259.86 182.863 259.95C182.774 260.039 182.652 260.09 182.525 260.09Z" fill="#CBCBCB"/>
<path d="M91.5016 165.882C113.786 165.882 131.851 147.739 131.851 125.358C131.851 102.978 113.786 84.835 91.5016 84.835C69.2171 84.835 51.1519 102.978 51.1519 125.358C51.1519 147.739 69.2171 165.882 91.5016 165.882Z" fill="#F86D70"/>
<path d="M87.5032 140.817C86.5954 140.819 85.7118 140.524 84.9855 139.977L84.9405 139.943L75.4578 132.658C75.0186 132.319 74.65 131.898 74.3731 131.417C74.0962 130.935 73.9164 130.404 73.8439 129.853C73.7715 129.302 73.8077 128.742 73.9507 128.205C74.0937 127.668 74.3406 127.165 74.6773 126.724C75.014 126.283 75.434 125.913 75.9131 125.635C76.3922 125.356 76.9212 125.176 77.4698 125.103C78.0185 125.03 78.576 125.067 79.1106 125.21C79.6452 125.354 80.1464 125.602 80.5856 125.94L86.7277 130.67L101.242 111.654C101.578 111.213 101.998 110.843 102.477 110.565C102.956 110.287 103.485 110.106 104.033 110.033C104.582 109.961 105.139 109.997 105.673 110.141C106.208 110.284 106.709 110.532 107.148 110.87L107.149 110.871L107.059 110.997L107.151 110.871C108.037 111.555 108.617 112.563 108.763 113.675C108.909 114.788 108.609 115.913 107.931 116.804L90.8587 139.162C90.4637 139.677 89.9559 140.094 89.3746 140.38C88.7934 140.666 88.1542 140.814 87.5069 140.812L87.5032 140.817Z" fill="white"/>
<path d="M331.721 264.073C332.212 263.276 332.789 262.536 333.444 261.868C333.713 261.587 333.998 261.322 334.291 261.065C336.075 259.47 338.25 258.381 340.592 257.91C342.934 257.44 345.359 257.604 347.616 258.386C349.874 259.168 351.884 260.54 353.439 262.361C354.993 264.182 356.037 266.386 356.463 268.746C358.433 261.427 353.304 254.218 348.146 248.68C342.986 243.144 337.088 237.071 337.118 229.486C337.132 225.265 339.188 221.5 342.292 218.708C342.388 218.623 342.483 218.539 342.581 218.457C346.333 215.228 351.16 213.538 356.098 213.727C365.271 214.22 373.281 220.412 378.844 227.757C387.797 239.575 391.721 256.164 385.453 269.617C379.939 281.449 368.18 288.475 356.179 294.123C354.503 294.912 352.831 295.677 351.162 296.419C351.151 296.421 351.139 296.429 351.128 296.432C351.047 296.468 350.967 296.503 350.892 296.54C350.547 296.692 350.203 296.845 349.861 296.996L350.019 297.1L350.513 297.421C350.342 297.317 350.172 297.216 350.001 297.112C349.951 297.08 349.897 297.05 349.846 297.019C343.952 293.467 337.975 289.709 333.903 284.164C329.68 278.407 327.982 270.16 331.721 264.073Z" fill="#F1F1F1"/>
<path d="M371.046 250.702C372.351 253.684 373.217 256.841 373.615 260.074C373.928 262.957 373.81 265.87 373.265 268.718C372.095 274.57 369.542 280.054 365.822 284.708C363.016 288.242 359.776 291.406 356.179 294.123C354.504 294.912 352.831 295.677 351.162 296.419C351.151 296.422 351.139 296.43 351.128 296.433C351.047 296.468 350.967 296.503 350.892 296.54C350.547 296.693 350.203 296.845 349.861 296.996L350.019 297.1L350.513 297.421C350.342 297.317 350.172 297.216 350.001 297.112C349.951 297.08 349.897 297.051 349.846 297.019C351.143 292.462 351.334 287.659 350.402 283.013C349.47 278.367 347.443 274.013 344.491 270.316C341.523 266.665 337.737 263.771 333.444 261.868C333.713 261.587 333.998 261.322 334.291 261.065C335.945 261.828 337.529 262.736 339.023 263.779C344.369 267.489 348.383 272.83 350.471 279.01C352.335 284.616 352.568 290.641 351.142 296.375C351.438 296.181 351.735 295.982 352.024 295.783C357.515 292.064 362.576 287.598 366.387 282.121C369.675 277.492 371.779 272.122 372.514 266.485C373.244 260.326 371.71 254.27 368.972 248.775C365.949 242.896 362.14 237.46 357.65 232.618C353.14 227.642 348.041 223.238 342.467 219.506C342.341 219.421 342.253 219.291 342.22 219.142C342.188 218.994 342.213 218.838 342.292 218.708C342.352 218.59 342.456 218.5 342.581 218.458C342.645 218.441 342.711 218.439 342.776 218.453C342.84 218.466 342.901 218.493 342.954 218.533C343.642 218.994 344.324 219.46 344.998 219.939C350.612 223.931 355.71 228.608 360.176 233.863C364.491 238.928 368.418 244.555 371.046 250.702Z" fill="white"/>
<path d="M250.873 18.8161C255.605 18.8161 259.442 14.963 259.442 10.21C259.442 5.45706 255.605 1.604 250.873 1.604C246.14 1.604 242.304 5.45706 242.304 10.21C242.304 14.963 246.14 18.8161 250.873 18.8161Z" fill="#F1F1F1"/>
<path d="M357.426 133.985C360.311 133.985 362.65 131.636 362.65 128.738C362.65 125.84 360.311 123.491 357.426 123.491C354.54 123.491 352.201 125.84 352.201 128.738C352.201 131.636 354.54 133.985 357.426 133.985Z" fill="#F1F1F1"/>
<path d="M204.525 148.381C207.41 148.381 209.749 146.032 209.749 143.134C209.749 140.236 207.41 137.887 204.525 137.887C201.639 137.887 199.3 140.236 199.3 143.134C199.3 146.032 201.639 148.381 204.525 148.381Z" fill="#F1F1F1"/>
<path d="M207.475 298H389.522C389.649 298 389.77 297.949 389.86 297.859C389.95 297.769 390 297.647 390 297.52C390 297.393 389.95 297.271 389.86 297.181C389.77 297.091 389.649 297.04 389.522 297.04H207.475C207.348 297.04 207.226 297.091 207.137 297.181C207.047 297.271 206.997 297.393 206.997 297.52C206.997 297.647 207.047 297.769 207.137 297.859C207.226 297.949 207.348 298 207.475 298Z" fill="#CBCBCB"/>
<path d="M369.432 46.3721C369.671 44.6677 369.279 42.9344 368.331 41.5006C367.383 40.0669 365.943 39.0324 364.286 38.5932C362.629 38.1539 360.869 38.3404 359.34 39.1173C357.81 39.8942 356.618 41.2076 355.988 42.8085L341.215 59.8172L345.55 71.9756L360.407 52.1016C361.376 52.4135 362.402 52.5081 363.412 52.3788C364.422 52.2494 365.391 51.8993 366.251 51.3531C367.112 50.8068 367.843 50.0777 368.392 49.2171C368.942 48.3565 369.297 47.3854 369.432 46.3721Z" fill="#FFB7B7"/>
<path d="M308.197 112.553L357.235 59.9936L350.62 49.4326L289.114 101.673L308.197 112.553Z" fill="#3F3D56"/>
<path d="M297.252 80.6181C306.752 80.6181 314.454 72.8837 314.454 63.3428C314.454 53.8018 306.752 46.0674 297.252 46.0674C287.752 46.0674 280.051 53.8018 280.051 63.3428C280.051 72.8837 287.752 80.6181 297.252 80.6181Z" fill="#2F2E41"/>
<path d="M298.635 53.5838C302.337 49.8142 306.816 46.9052 311.757 45.0617C314.93 43.8815 318.382 43.1523 321.698 43.8226C325.015 44.4928 328.151 46.7969 329.076 50.0646C329.833 52.7367 329.051 55.6137 327.877 58.1291C326.703 60.6445 325.136 62.977 324.186 65.5862C323.218 68.2486 322.926 71.1118 323.339 73.9159C323.751 76.72 324.855 79.3762 326.549 81.6434C328.243 83.9107 330.474 85.7171 333.039 86.8988C335.604 88.0804 338.423 88.5999 341.239 88.41C337.981 88.8488 334.977 90.3866 331.792 91.2052C328.607 92.0237 324.848 91.9682 322.482 89.6767C319.977 87.2522 319.927 83.3102 320.048 79.8189C320.228 74.6292 320.408 69.4394 320.588 64.2495C320.68 61.6028 320.758 58.8713 319.808 56.401C318.858 53.9307 316.599 51.7675 313.962 51.79C311.964 51.807 310.195 53.0229 308.592 54.222C306.989 55.4211 305.293 56.7004 303.302 56.8788C301.312 57.0571 299.039 55.5776 299.188 53.5761L298.635 53.5838Z" fill="#2F2E41"/>
<path d="M231.921 179.339C230.269 179.8 228.507 179.636 226.968 178.879C225.428 178.122 224.219 176.824 223.569 175.232C222.919 173.639 222.873 171.862 223.44 170.238C224.007 168.613 225.148 167.254 226.646 166.418L241.506 149.487L254.075 152.214L236.397 169.604C236.832 170.528 237.059 171.537 237.063 172.559C237.068 173.582 236.849 174.593 236.422 175.521C235.995 176.449 235.371 177.272 234.593 177.932C233.815 178.591 232.903 179.072 231.921 179.339H231.921Z" fill="#FFB7B7"/>
<path d="M280.811 118.723L243.773 165.414L232.483 160.208L276.017 92.1411L280.811 118.723Z" fill="#3F3D56"/>
<path d="M251.258 259.711L242.431 259.572L243.493 289.788H251.257L251.258 259.711Z" fill="#FFB7B7"/>
<path d="M253.237 287.242L237.947 287.242H237.946C235.362 287.242 232.883 288.273 231.056 290.108C229.228 291.943 228.202 294.432 228.202 297.028V297.346L253.237 297.347L253.237 287.242Z" fill="#2F2E41"/>
<path d="M309.703 251.698L300.06 257.915L319.349 281.22L325.882 277.007L309.703 251.698Z" fill="#FFB7B7"/>
<path d="M326.179 273.79L313.312 282.086L313.312 282.087C311.137 283.489 309.606 285.702 309.056 288.237C308.505 290.773 308.98 293.425 310.377 295.609L310.548 295.877L331.615 282.293L326.179 273.79Z" fill="#2F2E41"/>
<path d="M313.138 159.433C313.138 159.433 291.713 87.9666 284.828 87.0009C277.942 86.0351 266.849 105.338 266.849 105.338C252.465 123.769 237.633 183.471 237.633 183.471C237.633 183.471 262.358 185.025 280.433 194.683C298.507 204.34 319.837 194.194 319.837 194.194L313.138 159.433Z" fill="#3F3D56"/>
<path opacity="0.1" d="M313.138 159.432C313.138 159.432 291.713 87.9663 284.828 87.0005C277.942 86.0348 269.666 105.534 269.666 105.534C262.499 135.286 237.633 183.471 237.633 183.471C237.633 183.471 262.358 185.025 280.433 194.682C298.507 204.34 319.837 194.193 319.837 194.193L313.138 159.432Z" fill="black"/>
<path d="M295.561 138.05V173.962L299.769 225.982L320.793 265.331L310.759 272.529L282.09 235.099L270.751 197.934L252.943 280.207L239.564 279.247L248.856 165.177L266.487 133.068L295.561 138.05Z" fill="#2F2E41"/>
<path d="M273.959 103.316C267.269 110.034 273.481 117.232 273.481 117.232L265.836 134.508L295.938 142.666L306.458 95.4567L299.291 87.7787C284.956 87.2988 284.949 87.0005 284.949 87.0005C282.437 89.4689 273.959 103.316 273.959 103.316Z" fill="#F86D70"/>
<path d="M307.67 90.5659C306.303 89.5523 304.749 88.8213 303.099 88.4151C301.448 88.009 299.734 87.9357 298.055 88.1996C296.376 88.4635 294.766 89.0594 293.318 89.9526C291.87 90.8459 290.613 92.0188 289.62 93.4034C282.052 103.986 275.055 121.073 284.696 142.385C300.177 176.604 313.648 194.122 319.125 194.12C319.364 194.122 319.602 194.084 319.829 194.009C323.2 192.86 328.074 187.131 328.956 182.083C329.272 180.276 329.197 177.759 327.045 176.031C320.865 171.066 309.769 155.606 306.307 135.259C304.394 124.016 308.104 113.774 311.553 107.162C313.01 104.427 313.436 101.255 312.753 98.2298C312.071 95.2042 310.325 92.5269 307.837 90.6889L307.67 90.5659Z" fill="#3F3D56"/>
<path d="M298.137 78.9215C304.273 75.5527 306.528 67.8261 303.174 61.6635C299.82 55.501 292.126 53.2362 285.99 56.6049C279.854 59.9737 277.599 67.7003 280.953 73.8629C284.307 80.0254 292.001 82.2902 298.137 78.9215Z" fill="#FFB7B7"/>
<path d="M274.256 66.8012H292.54L292.728 64.1649L293.665 66.8012H296.48L296.852 61.5761L298.71 66.8012H304.157V66.5423C304.153 62.9047 302.713 59.4172 300.152 56.845C297.59 54.2728 294.118 52.8259 290.496 52.8218H287.918C284.296 52.8259 280.823 54.2727 278.262 56.845C275.701 59.4172 274.26 62.9047 274.256 66.5423V66.8012Z" fill="#2F2E41"/>
<path d="M301.395 76.2774L309.198 73.7347V54.7051H294.46L294.825 55.0709C299.901 60.1628 305.547 78.2281 301.395 76.2774Z" fill="#2F2E41"/>
</g>
<defs>
<clipPath id="clip0">
<rect width="390" height="298" fill="white"/>
</clipPath>
</defs>
</svg>
